<svg xmlns="http://www.w3.org/2000/svg" version="1.1" xmlns:xlink="http://www.w3.org/1999/xlink" viewBox="0 0 200 200"><rect width="200" height="200" fill="url('#gradient')"></rect><defs><linearGradient id="gradient" gradientTransform="rotate(45 0.5 0.5)"><stop offset="0%" stop-color="#ddd1b3"></stop><stop offset="100%" stop-color="#9a9181"></stop></linearGradient></defs><g><g fill="#ffffff" transform="matrix(2.0550786040807223,0,0,2.0550786040807223,7.7957322171784895,111.02670640070338)" stroke="#97907f" stroke-width="0.2"><path d="M5.75 0L1.07 0L1.07-14.22L5.65-14.22Q7.54-14.22 9.04-13.36Q10.55-12.51 11.39-10.95Q12.24-9.39 12.25-7.46L12.25-7.46L12.25-6.81Q12.25-4.85 11.42-3.31Q10.60-1.76 9.10-0.88Q7.60-0.01 5.75 0L5.75 0ZM5.65-11.57L4.50-11.57L4.50-2.64L5.69-2.64Q7.17-2.64 7.96-3.69Q8.75-4.74 8.75-6.81L8.75-6.81L8.75-7.42Q8.75-9.48 7.96-10.53Q7.17-11.57 5.65-11.57L5.65-11.57ZM23.10 0L19.80 0Q19.63-0.32 19.49-0.95L19.49-0.95Q18.58 0.20 16.95 0.20L16.95 0.20Q15.46 0.20 14.41-0.71Q13.37-1.61 13.37-2.98L13.37-2.98Q13.37-4.70 14.64-5.58Q15.91-6.46 18.33-6.46L18.33-6.46L19.35-6.46L19.35-7.01Q19.35-8.47 18.09-8.47L18.09-8.47Q16.91-8.47 16.91-7.31L16.91-7.31L13.62-7.31Q13.62-8.85 14.93-9.80Q16.23-10.76 18.25-10.76Q20.27-10.76 21.45-9.78Q22.62-8.79 22.65-7.07L22.65-7.07L22.65-2.39Q22.67-0.94 23.10-0.17L23.10-0.17L23.10 0ZM17.74-2.15L17.74-2.15Q18.36-2.15 18.76-2.41Q19.17-2.68 19.35-3.01L19.35-3.01L19.35-4.70L18.39-4.70Q16.67-4.70 16.67-3.15L16.67-3.15Q16.67-2.71 16.97-2.43Q17.28-2.15 17.74-2.15ZM27.94-10.57L27.94 0L24.64 0L24.64-10.57L27.94-10.57ZM24.44-13.29L24.44-13.29Q24.44-13.99 24.95-14.44Q25.46-14.89 26.27-14.89Q27.08-14.89 27.59-14.44Q28.10-13.99 28.10-13.29Q28.10-12.59 27.59-12.14Q27.08-11.69 26.27-11.69Q25.46-11.69 24.95-12.14Q24.44-12.59 24.44-13.29ZM33.44-15L33.44 0L30.14 0L30.14-15L33.44-15ZM38.02-10.57L39.69-4.61L41.45-10.57L44.97-10.57L40.66 1.77L40.48 2.22Q39.56 4.27 37.24 4.27L37.24 4.27Q36.59 4.27 35.88 4.07L35.88 4.07L35.88 1.72L36.31 1.72Q37.00 1.72 37.37 1.52Q37.73 1.32 37.91 0.80L37.91 0.80L38.17 0.10L34.50-10.57L38.02-10.57ZM57.14-14.22L57.14-11.57L52.87-11.57L52.87 0L49.44 0L49.44-11.57L45.25-11.57L45.25-14.22L57.14-14.22ZM56.00-4.82L55.99-5.38Q55.99-6.96 56.60-8.20Q57.22-9.43 58.37-10.10Q59.52-10.76 61.07-10.76L61.07-10.76Q63.45-10.76 64.81-9.29Q66.18-7.82 66.18-5.29L66.18-5.29L66.18-5.18Q66.18-2.71 64.81-1.25Q63.44 0.20 61.09 0.20L61.09 0.20Q58.84 0.20 57.47-1.16Q56.10-2.51 56.00-4.82L56.00-4.82ZM59.29-5.77L59.28-5.18Q59.28-3.71 59.74-3.03Q60.20-2.34 61.09-2.34L61.09-2.34Q62.85-2.34 62.89-5.05L62.89-5.05L62.89-5.38Q62.89-8.22 61.07-8.22L61.07-8.22Q59.42-8.22 59.29-5.77L59.29-5.77ZM67.22-5.36L67.22-5.36Q67.22-7.87 68.30-9.32Q69.38-10.76 71.33-10.76L71.33-10.76Q72.74-10.76 73.71-9.65L73.71-9.65L73.71-15L77.01-15L77.01 0L74.05 0L73.89-1.13Q72.87 0.20 71.31 0.20L71.31 0.20Q69.42 0.20 68.32-1.25Q67.22-2.70 67.22-5.36ZM70.52-5.76L70.51-5.16Q70.51-2.34 72.15-2.34L72.15-2.34Q73.24-2.34 73.71-3.26L73.71-3.26L73.71-7.29Q73.26-8.22 72.17-8.22L72.17-8.22Q70.64-8.22 70.52-5.76L70.52-5.76ZM78.48-4.82L78.47-5.38Q78.47-6.96 79.08-8.20Q79.70-9.43 80.85-10.10Q82.00-10.76 83.55-10.76L83.55-10.76Q85.93-10.76 87.29-9.29Q88.66-7.82 88.66-5.29L88.66-5.29L88.66-5.18Q88.66-2.71 87.29-1.25Q85.92 0.20 83.57 0.20L83.57 0.20Q81.32 0.20 79.95-1.16Q78.58-2.51 78.48-4.82L78.48-4.82ZM81.77-5.77L81.76-5.18Q81.76-3.71 82.22-3.03Q82.68-2.34 83.57-2.34L83.57-2.34Q85.33-2.34 85.37-5.05L85.37-5.05L85.37-5.38Q85.37-8.22 83.55-8.22L83.55-8.22Q81.90-8.22 81.77-5.77L81.77-5.77Z"></path></g></g></svg>